<svg id="Layer_1" data-name="Layer 1" xmlns="http://www.w3.org/2000/svg" viewBox="0 0 58.4 58.4"><defs><style>.cls-1{fill:#dc3542;}.cls-2{isolation:isolate;}</style></defs><path class="cls-1" d="M297.5,391.8A29.2,29.2,0,1,0,326.7,421,29.23,29.23,0,0,0,297.5,391.8Zm0,57.5A28.3,28.3,0,1,1,325.8,421,28.34,28.34,0,0,1,297.5,449.3Z" transform="translate(-268.3 -391.8)"/><path class="cls-1" d="M297.5,392a29,29,0,1,0,29,29A29,29,0,0,0,297.5,392Zm0,57.5A28.5,28.5,0,1,1,326,421,28.5,28.5,0,0,1,297.5,449.5Z" transform="translate(-268.3 -391.8)"/><path id="Icon_ionic-ios-musical-notes" data-name="Icon ionic-ios-musical-notes" class="cls-1" d="M312.65,404.78,295.84,408a.72.72,0,0,0-.66.65v19.58a2.43,2.43,0,0,1-.2,1,2.2,2.2,0,0,1-1.32,1c-.27.09-.63.17-1.07.27-2,.44-5.25,1.19-5.25,4.23a3.73,3.73,0,0,0,3.4,3.87,3.8,3.8,0,0,0,.58.06h0a10,10,0,0,0,4.18-1.08,4.37,4.37,0,0,0,2-3.9V416.39a.65.65,0,0,1,.52-.64l12.4-2.5a.65.65,0,0,1,.77.51.51.51,0,0,1,0,.13v10.67a2.4,2.4,0,0,1-.2,1.09,2.15,2.15,0,0,1-1.33,1,11.17,11.17,0,0,1-1.15.27c-2,.44-5.25,1.19-5.25,4.22a3.75,3.75,0,0,0,3.41,3.94,7,7,0,0,0,1.58-.07,9.32,9.32,0,0,0,3-1.06,4.3,4.3,0,0,0,2.24-3.93V405.4a.64.64,0,0,0-.64-.64A.44.44,0,0,0,312.65,404.78Z" transform="translate(-268.3 -391.8)"/><g id="_" data-name=" " class="cls-2"><g class="cls-2"><path class="cls-1" d="M282.15,421h-5.5v-3.19h5.5V412.3h3.2v5.54h5.49V421h-5.49v5.62h-3.2Z" transform="translate(-268.3 -391.8)"/></g></g></svg>