<svg id="Layer_1" data-name="Layer 1" xmlns="http://www.w3.org/2000/svg" viewBox="0 0 203.14 173.91"><defs><style>.cls-1{fill:#dd3643;}</style></defs><polygon class="cls-1" points="195.32 167.26 193.71 163.99 192.09 167.26 188.49 167.78 191.1 170.32 190.48 173.91 193.71 172.22 196.93 173.91 196.31 170.32 198.92 167.78 195.32 167.26"/><path class="cls-1" d="M312.05,523a2.17,2.17,0,0,0,.95-1.89,2.39,2.39,0,0,0-.86-2,3.59,3.59,0,0,0-2.2-.61h-1.73v9.59h2.39a3.46,3.46,0,0,0,2.3-.63,2.64,2.64,0,0,0,1-2.07A2.4,2.4,0,0,0,312.05,523Zm-2.77-3.47h.83c.3,0,1.85,0,1.85,1.61s-1.32,1.6-1.88,1.6h-.8Zm2.9,7.18a2.7,2.7,0,0,1-1.68.4h-1.22v-3.42h1.09A3.36,3.36,0,0,1,312,524a1.55,1.55,0,0,1,.82,1.41A1.64,1.64,0,0,1,312.18,526.74Z" transform="translate(-196.26 -354.47)"/><polygon class="cls-1" points="121.84 168.37 119.39 164.08 118.16 164.08 121.31 169.54 121.31 173.67 122.37 173.67 122.37 169.54 125.55 164.08 124.31 164.08 121.84 168.37"/><path class="cls-1" d="M328.25,518.55h-1.74v9.59h1.06V524h.93c2.19,0,3-1.33,3-2.68a2.65,2.65,0,0,0-.88-2.06A3.47,3.47,0,0,0,328.25,518.55Zm.2,4.42h-.88v-3.41h.79c.69,0,2.11.14,2.11,1.67C330.47,522.34,329.71,523,328.45,523Z" transform="translate(-196.26 -354.47)"/><path class="cls-1" d="M338,521.21a2.49,2.49,0,0,0-1.05-2.12,4.22,4.22,0,0,0-2.33-.54h-1.54v9.59h1.06V524h.28l2.92,4.19h1.29l-3.05-4.28A2.53,2.53,0,0,0,338,521.21ZM334.12,523v-3.44h.65a2.78,2.78,0,0,1,1.38.27,1.5,1.5,0,0,1,.76,1.41c0,1.12-.79,1.76-2.11,1.76Z" transform="translate(-196.26 -354.47)"/><polygon class="cls-1" points="144.01 173.67 148.99 173.67 148.99 172.66 145.08 172.66 145.08 168.94 148.87 168.94 148.87 167.93 145.08 167.93 145.08 165.09 148.99 165.09 148.99 164.08 144.01 164.08 144.01 173.67"/><path class="cls-1" d="M350.52,522.72l-.92-.4a3.17,3.17,0,0,1-1-.6,1,1,0,0,1-.36-.84,1.47,1.47,0,0,1,1.61-1.48,1.72,1.72,0,0,1,1.07.33,2.36,2.36,0,0,1,.57.72l.84-.56a2.8,2.8,0,0,0-.93-1.06,2.59,2.59,0,0,0-1.54-.43,2.48,2.48,0,0,0-2.69,2.47,2,2,0,0,0,.66,1.57,4.59,4.59,0,0,0,1.28.79l.87.4a4.31,4.31,0,0,1,1.15.66,1.45,1.45,0,0,1,.47,1.12,2,2,0,0,1-3.31,1.37,2.28,2.28,0,0,1-.57-1.22l-1,.28a3.5,3.5,0,0,0,.89,1.7,3.08,3.08,0,0,0,5.12-2.17,2.31,2.31,0,0,0-.69-1.74A4.79,4.79,0,0,0,350.52,522.72Z" transform="translate(-196.26 -354.47)"/><path class="cls-1" d="M357.66,522.72l-.92-.4a3.17,3.17,0,0,1-1-.6,1,1,0,0,1-.36-.84A1.47,1.47,0,0,1,357,519.4a1.78,1.78,0,0,1,1.08.33,2.49,2.49,0,0,1,.56.72l.85-.56a2.91,2.91,0,0,0-.94-1.06,2.57,2.57,0,0,0-1.54-.43,2.48,2.48,0,0,0-2.69,2.47,2,2,0,0,0,.66,1.57,4.63,4.63,0,0,0,1.29.79l.86.4a4.31,4.31,0,0,1,1.15.66,1.45,1.45,0,0,1,.47,1.12,2,2,0,0,1-3.3,1.37,2.22,2.22,0,0,1-.58-1.22l-1,.28a3.44,3.44,0,0,0,.9,1.7,2.84,2.84,0,0,0,2.08.78,2.87,2.87,0,0,0,3-3,2.34,2.34,0,0,0-.68-1.74A5,5,0,0,0,357.66,522.72Z" transform="translate(-196.26 -354.47)"/><path class="cls-1" d="M370.89,524.43a2.7,2.7,0,0,1-.77,2.33,2.54,2.54,0,0,1-3.16,0,2.73,2.73,0,0,1-.76-2.33v-5.88h-1.07v6.17a3.69,3.69,0,0,0,.61,2.3,3.68,3.68,0,0,0,5.61,0,3.74,3.74,0,0,0,.6-2.3v-6.17h-1.06Z" transform="translate(-196.26 -354.47)"/><path class="cls-1" d="M376.16,518.55h-1.74v9.59h1.06V524h.94c2.18,0,3-1.33,3-2.68a2.65,2.65,0,0,0-.88-2.06A3.45,3.45,0,0,0,376.16,518.55Zm.2,4.42h-.88v-3.41h.79c.69,0,2.12.14,2.12,1.67C378.39,522.34,377.62,523,376.36,523Z" transform="translate(-196.26 -354.47)"/><path class="cls-1" d="M339.26,399.32V387c.45-.06.75-.17.76-.59l0-1.14a.9.9,0,0,0,.2-.57l0-4.14a1.6,1.6,0,0,0,.45-.32l.11-.1a1.64,1.64,0,0,0,.42-.94l.67-7.1,1.61-.42a2.55,2.55,0,0,0,1.43-1c2.49-.52,5.1-1,7.75-1.54h.09a36.21,36.21,0,0,0,10.25-2.42l1.63-.56a4.28,4.28,0,0,0,2.81-4.52,28.26,28.26,0,0,0-1.36-4.75,4.3,4.3,0,0,0-4.78-2.34l-1.69.4a35.71,35.71,0,0,0-10,3.37l-.07,0c-2.64,1-5.27,2-7.83,3a3.61,3.61,0,0,0-2.24-.16L329,363.92a3.74,3.74,0,0,0-2.67,2.67c-3,.93-5.75,1.71-8.35,2.41-.63.18-.72,1-.73,1.55l-5.71,2.17a2.78,2.78,0,0,0-.7.4,2.19,2.19,0,0,0-.34.34v0l-5.68,2a.83.83,0,0,0-.5.61,1.6,1.6,0,0,0-.05.39,3.05,3.05,0,0,0,.08.66,3.11,3.11,0,0,0,.21.63,2.56,2.56,0,0,0,.22.38.91.91,0,0,0,1,.49l5.76-1.39.07,0a2.46,2.46,0,0,0,.47.1,2.49,2.49,0,0,0,.81,0l5.95-1.26c.29.45.8,1.07,1.43.89,2.57-.79,5.27-1.56,8.23-2.35a2.5,2.5,0,0,0,2.14.45l.65-.17.21.8a3.13,3.13,0,0,0,1.54,2l0,7a.9.9,0,0,0,.15.51l0,1.23c0,.42.32.54.81.59v12.35H196.26V512.93H333.07v-7h.11a.5.5,0,0,0,.5-.5v-9a.7.7,0,0,1,.63-.65.5.5,0,0,0,.43-.49v-4.64a.49.49,0,0,0,.17-.38V386.51a.5.5,0,0,0-.46-.5l-.34,0v-.57a.43.43,0,0,0,.12-.22.49.49,0,0,0-.26-.55l0-7.34a.49.49,0,0,0-.27-.44l-.21-.11a2.1,2.1,0,0,1-1.09-1.36l-.33-1.29a.5.5,0,0,0-.61-.35l-1.14.29a1.52,1.52,0,0,1-1.43-.39.48.48,0,0,0-.47-.12c-3,.8-5.8,1.59-8.43,2.39a2.27,2.27,0,0,1-.54-.71A.5.5,0,0,0,319,375l-6.31,1.33a1.39,1.39,0,0,1-.49,0,1.31,1.31,0,0,1-.27-.06l-.13-.06a.59.59,0,0,0-.32,0l-5.83,1.42-.05-.07a1.26,1.26,0,0,1-.13-.23,2.72,2.72,0,0,1-.15-.43,2.27,2.27,0,0,1-.05-.42.41.41,0,0,1,0-.12l5.7-2a.92.92,0,0,0,.31-.28,1.19,1.19,0,0,1,.19-.2,1.59,1.59,0,0,1,.43-.23l6-2.3a.49.49,0,0,0,.32-.49,2.37,2.37,0,0,1,.08-.93c2.65-.71,5.45-1.52,8.56-2.48a.47.47,0,0,0,.34-.39,2.74,2.74,0,0,1,2-2.18l10.57-2.74a2.67,2.67,0,0,1,1.78.19.52.52,0,0,0,.37,0c2.66-1,5.41-2,8.16-3.09a.44.44,0,0,0,.16-.1,35.23,35.23,0,0,1,9.61-3.22l1.7-.39a3.31,3.31,0,0,1,3.61,1.72,27.05,27.05,0,0,1,1.32,4.59,3.31,3.31,0,0,1-2.14,3.37l-1.65.56a34.81,34.81,0,0,1-9.84,2.36h-.21c-2.79.53-5.52,1.07-8.12,1.61a.48.48,0,0,0-.33.24,1.57,1.57,0,0,1-.94.71l-2,.5a.5.5,0,0,0-.37.44l-.7,7.45a.66.66,0,0,1-.23.41.7.7,0,0,1-.36.19.5.5,0,0,0-.4.49l-.06,4.48a.48.48,0,0,0-.18.56v0l0,.74-.3,0a.51.51,0,0,0-.47.5V490.28a.48.48,0,0,0,.14.34v4.66a.51.51,0,0,0,.44.5.68.68,0,0,1,.65.66v9a.49.49,0,0,0,.18.38v1.84h0v5.25H399.4V399.32Zm-5.35,90.58a.52.52,0,0,0-.17.38v4.64a1.64,1.64,0,0,0-1.06,1.52V505h-.11a.5.5,0,0,0-.5.5v2.22H201.51V404.57h132.4Zm6.58,15.18v-8.64a1.66,1.66,0,0,0-1.09-1.55v-4.61a.46.46,0,0,0-.14-.34V404.57h54.89V507.68H340.67v-2.22A.49.49,0,0,0,340.49,505.08Z" transform="translate(-196.26 -354.47)"/><path class="cls-1" d="M233.2,419.63c-10.95,0-16.62,6.49-16.62,17.84v37.31c0,11.35,5.67,17.84,16.62,17.84s16.62-6.49,16.62-17.84V451.56H233.71V461.7h5.57v13.89c0,5.06-2.23,6.89-5.78,6.89s-5.77-1.83-5.77-6.89V436.76c0-5.06,2.23-7,5.77-7s5.78,1.93,5.78,7v6.79h10.54v-6.08C249.82,426.12,244.15,419.63,233.2,419.63Z" transform="translate(-196.26 -354.47)"/><rect class="cls-1" x="60.76" y="66.17" width="11.15" height="70.96"/><path class="cls-1" d="M292.29,419.63c-11,0-16.62,6.49-16.62,17.84v37.31c0,11.35,5.67,17.84,16.62,17.84s16.63-6.49,16.63-17.84V451.56H292.8V461.7h5.57v13.89c0,5.06-2.23,6.89-5.77,6.89s-5.78-1.83-5.78-6.89V436.76c0-5.06,2.23-7,5.78-7s5.77,1.93,5.77,7v6.79h10.55v-6.08C308.92,426.12,303.24,419.63,292.29,419.63Z" transform="translate(-196.26 -354.47)"/><path class="cls-1" d="M360,492.1h12.15V431.28h11.65V420.15H348.35v11.13H360Zm-10.66-61.82v-9.13h33.46v9.13H371.16V491.1H361V430.28Z" transform="translate(-196.26 -354.47)"/></svg>