<?xml version="1.0" encoding="utf-8"?>
<!-- Generator: Adobe Illustrator 25.2.3, SVG Export Plug-In . SVG Version: 6.00 Build 0)  -->
<svg version="1.1" id="Layer_1" xmlns="http://www.w3.org/2000/svg" xmlns:xlink="http://www.w3.org/1999/xlink" x="0px" y="0px"
	 viewBox="0 0 203.1 173.9" style="enable-background:new 0 0 203.1 173.9;" xml:space="preserve">
<style type="text/css">
	.st0{fill:#FFFFFF;}
	.st1{fill:#16192D;}
</style>
<path class="st0" d="M137.7,135.4c-0.1,0.1-0.2,0.2-0.2,0.4v4.6c-0.6,0.2-1.1,0.8-1.1,1.5v8.6h-0.1c-0.3,0-0.5,0.2-0.5,0.5v2.2H5.2
	V50.1h132.4L137.7,135.4z"/>
<path class="st0" d="M143,50.1v85.4c0.1,0.1,0.1,0.2,0.1,0.3v4.6c0.7,0.2,1.1,0.9,1.1,1.5v8.6c0.1,0.1,0.2,0.2,0.2,0.4v2.2h53.5
	V50.1H143z M186.6,75.8h-11.6v60.8h-10.2V75.8h-11.6v-9.1h33.5V75.8z"/>
<g>
	<polygon class="st1" points="195.3,167.3 193.7,164 192.1,167.3 188.5,167.8 191.1,170.3 190.5,173.9 193.7,172.2 196.9,173.9 
		196.3,170.3 198.9,167.8 	"/>
	<path class="st1" d="M115.8,168.6c0.6-0.4,1-1.1,1-1.9c0.1-0.8-0.3-1.5-0.9-2c-0.6-0.4-1.4-0.7-2.2-0.6l-1.8,0v9.6h2.4
		c0.8,0.1,1.6-0.2,2.3-0.6c0.6-0.5,1-1.3,1-2.1C117.7,169.9,116.9,168.8,115.8,168.6z M113,165.1h0.8c0.3,0,1.9,0.1,1.9,1.6
		s-1.3,1.6-1.9,1.6H113V165.1z M115.9,172.3c-0.5,0.3-1.1,0.5-1.7,0.4H113l0-3.4h1.1c0.6,0,1.1,0.1,1.6,0.3c0.5,0.3,0.8,0.8,0.8,1.4
		C116.6,171.5,116.3,172,115.9,172.3z"/>
	<polygon class="st1" points="121.8,168.4 119.4,164.1 118.2,164.1 121.3,169.5 121.3,173.6 122.4,173.6 122.4,169.5 125.5,164.1 
		124.3,164.1 	"/>
	<path class="st1" d="M132,164.1l-1.7,0v9.6h1.1v-4.2h0.9c2.1,0,3-1.3,3-2.7c0-0.8-0.3-1.5-0.9-2.1C133.7,164.2,132.8,164,132,164.1
		z M132.2,168.5h-0.9l0-3.4h0.8c0.7,0,2.1,0.1,2.1,1.7C134.2,167.9,133.5,168.5,132.2,168.5z"/>
	<path class="st1" d="M139.3,169.4c1.4-0.1,2.5-1.3,2.4-2.6c0-0.8-0.4-1.6-1-2.1c-0.7-0.4-1.5-0.6-2.3-0.5l-1.5,0v9.6h1.1v-4.2h0.3
		l2.9,4.1h1.3L139.3,169.4C139.3,169.4,139.3,169.4,139.3,169.4z M137.9,168.5v-3.4h0.6c0.5,0,1,0.1,1.4,0.3
		c0.5,0.3,0.8,0.8,0.8,1.4c0,1.1-0.8,1.8-2.1,1.8H137.9z"/>
	<polygon class="st1" points="144,173.7 149,173.7 149,172.7 145.1,172.7 145.1,168.9 148.9,168.9 148.9,167.9 145.1,167.9 
		145.1,165.1 149,165.1 149,164.1 144,164.1 	"/>
	<path class="st1" d="M154.3,168.3l-0.9-0.4c-0.4-0.1-0.7-0.3-1-0.6c-0.2-0.2-0.4-0.5-0.4-0.8c0-0.1,0-0.1,0-0.2
		c0.1-0.8,0.8-1.4,1.6-1.3c0.4,0,0.8,0.1,1.1,0.3c0.2,0.2,0.4,0.4,0.6,0.7l0.8-0.6c-0.2-0.4-0.5-0.8-0.9-1.1c-0.5-0.3-1-0.5-1.5-0.4
		c-0.1,0-0.1,0-0.2,0c-1.4,0-2.5,1.1-2.5,2.5c0,0.6,0.2,1.2,0.7,1.6c0.4,0.3,0.8,0.6,1.3,0.8l0.9,0.4c0.4,0.2,0.8,0.4,1.2,0.7
		c0.3,0.3,0.5,0.7,0.5,1.1c0,0.4-0.2,0.8-0.5,1.2c-0.7,0.8-2,0.9-2.8,0.2c-0.3-0.3-0.5-0.8-0.6-1.2l-1,0.3c0.1,0.6,0.4,1.2,0.9,1.7
		c0.5,0.5,1.2,0.7,1.9,0.8c1.7,0.1,3.1-1.2,3.2-2.9c0-0.7-0.2-1.3-0.7-1.7C155.3,168.8,154.8,168.5,154.3,168.3z"/>
	<path class="st1" d="M161.4,168.3l-0.9-0.4c-0.4-0.1-0.7-0.3-1-0.6c-0.2-0.2-0.4-0.5-0.4-0.8c0-0.1,0-0.1,0-0.2
		c0.1-0.8,0.8-1.4,1.6-1.3c0.4,0,0.8,0.1,1.1,0.3c0.2,0.2,0.4,0.4,0.6,0.7l0.9-0.6c-0.2-0.4-0.5-0.8-0.9-1.1c-0.5-0.3-1-0.5-1.5-0.4
		c-0.1,0-0.2,0-0.3,0c-1.4,0-2.5,1.2-2.4,2.5c0,0.6,0.2,1.2,0.7,1.6c0.4,0.3,0.8,0.6,1.3,0.8l0.9,0.4c0.4,0.2,0.8,0.4,1.1,0.7
		c0.3,0.3,0.5,0.7,0.5,1.1c0,0.4-0.2,0.8-0.5,1.2c-0.7,0.8-2,0.9-2.8,0.2c-0.3-0.3-0.5-0.8-0.6-1.2l-1,0.3c0.1,0.6,0.4,1.2,0.9,1.7
		c0.6,0.5,1.3,0.8,2.1,0.8c0.1,0,0.2,0,0.3,0c1.6-0.1,2.8-1.4,2.7-3c0-0.6-0.2-1.3-0.7-1.7C162.5,168.8,161.9,168.5,161.4,168.3z"/>
	<path class="st1" d="M174.6,170c0.1,0.9-0.2,1.7-0.8,2.3c-0.9,0.7-2.2,0.7-3.2,0c-0.6-0.6-0.9-1.5-0.8-2.3l0.1-5.9h-1.1v6.2
		c-0.1,0.8,0.2,1.6,0.6,2.3c0.1,0.2,0.3,0.3,0.4,0.4c1.5,1.3,3.9,1.1,5.2-0.4c0.4-0.7,0.7-1.5,0.6-2.3v-6.2h-1.1V170z"/>
	<path class="st1" d="M179.9,164.1l-1.7,0v9.6h1.1v-4.2h0.9c2.2,0,3-1.3,3-2.7c0-0.8-0.3-1.5-0.9-2.1
		C181.6,164.2,180.8,164,179.9,164.1z M180.1,168.5h-0.9l0-3.4h0.8c0.7,0,2.1,0.1,2.1,1.7C182.1,167.9,181.4,168.5,180.1,168.5z"/>
	<path class="st1" d="M143,44.8V32.5c0.5-0.1,0.8-0.2,0.8-0.6v-1.1c0.1-0.2,0.2-0.4,0.2-0.6v-4.1c0.2-0.1,0.3-0.2,0.5-0.3l0.1-0.1
		c0.2-0.3,0.4-0.6,0.4-0.9l0.7-7.1l1.6-0.4c0.6-0.2,1.1-0.5,1.4-1c2.5-0.5,5.1-1,7.8-1.5h0.1c3.5-0.3,7-1.1,10.2-2.4l1.6-0.6
		c1.9-0.7,3-2.5,2.8-4.5c-0.3-1.6-0.8-3.2-1.4-4.8C169,0.6,167-0.3,165,0.1l-1.7,0.4c-3.5,0.6-6.9,1.8-10,3.4h-0.1
		c-2.6,1-5.3,2-7.8,3c-0.7-0.3-1.5-0.3-2.2-0.2l-10.5,2.8c-1.3,0.3-2.3,1.4-2.7,2.7c-3,0.9-5.8,1.7-8.4,2.4c-0.6,0.2-0.7,1-0.7,1.5
		l-5.7,2.2c-0.3,0.1-0.5,0.2-0.7,0.4c-0.1,0.1-0.2,0.2-0.3,0.3l-5.7,2c-0.3,0.1-0.4,0.3-0.5,0.6c0,0.1,0,0.3,0,0.4
		c0,0.2,0,0.4,0.1,0.7c0,0.2,0.1,0.4,0.2,0.6c0.1,0.1,0.1,0.3,0.2,0.4c0.2,0.4,0.6,0.6,1,0.5l5.8-1.4h0.1c0.2,0,0.3,0.1,0.5,0.1
		c0.3,0,0.5,0,0.8,0l6-1.3c0.3,0.5,0.8,1.1,1.4,0.9c2.6-0.8,5.3-1.6,8.2-2.3c0.6,0.5,1.4,0.6,2.1,0.5l0.7-0.2l0.2,0.8
		c0.2,0.9,0.8,1.6,1.5,2v7c0,0.2,0,0.4,0.1,0.5V32c0,0.4,0.3,0.5,0.8,0.6v12.3H0v113.6h136.8v-4.2v-1v-1.7h0.1
		c0.3,0,0.5-0.2,0.5-0.5v-9c0-0.3,0.3-0.6,0.6-0.6c0.2,0,0.4-0.2,0.4-0.5v-4.6c0.1-0.1,0.2-0.2,0.2-0.4V50.1v-5.2V32
		c0-0.3-0.2-0.5-0.5-0.5h-0.3V31c0.1-0.1,0.1-0.1,0.1-0.2c0.1-0.2-0.1-0.4-0.3-0.5v-7.3c0-0.2-0.1-0.4-0.3-0.4l-0.2-0.1
		c-0.5-0.3-0.9-0.8-1.1-1.4l-0.3-1.3c-0.1-0.3-0.3-0.4-0.6-0.4l-1.2,0.3c-0.5,0.1-1,0-1.4-0.4c-0.1-0.1-0.3-0.2-0.5-0.1
		c-3,0.8-5.8,1.6-8.4,2.4c-0.2-0.2-0.4-0.4-0.5-0.7c-0.1-0.2-0.3-0.2-0.5-0.2l-6.3,1.3c-0.2,0-0.3,0-0.5,0c-0.1,0-0.2,0-0.3-0.1
		l-0.1-0.1c-0.1,0-0.2,0-0.3,0l-5.8,1.4l0-0.1c-0.1-0.1-0.1-0.1-0.1-0.2c-0.1-0.1-0.1-0.3-0.1-0.4c0-0.1,0-0.3,0-0.4
		c0,0,0-0.1,0-0.1l5.7-2c0.1-0.1,0.2-0.2,0.3-0.3c0.1-0.1,0.1-0.1,0.2-0.2c0.1-0.1,0.3-0.2,0.4-0.2l6-2.3c0.2-0.1,0.3-0.3,0.3-0.5
		c0-0.3,0-0.6,0.1-0.9c2.7-0.7,5.5-1.5,8.6-2.5c0.2-0.1,0.3-0.2,0.3-0.4c0.2-1.1,1-1.9,2-2.2l10.6-2.7c0.6-0.1,1.2-0.1,1.8,0.2
		c0.1,0,0.3,0,0.4,0c2.7-1,5.4-2,8.2-3.1c0.1,0,0.1-0.1,0.2-0.1c3-1.5,6.3-2.6,9.6-3.2l1.7-0.4c1.5-0.3,2.9,0.4,3.6,1.7
		c0.6,1.5,1,3,1.3,4.6c0.1,1.5-0.8,2.9-2.1,3.4l-1.6,0.6c-3.1,1.3-6.5,2.1-9.8,2.4h-0.2c-2.8,0.5-5.5,1.1-8.1,1.6
		c-0.1,0-0.3,0.1-0.3,0.2c-0.2,0.3-0.5,0.6-0.9,0.7l-2,0.5c-0.2,0.1-0.4,0.2-0.4,0.4l-0.7,7.5c0,0.2-0.1,0.3-0.2,0.4
		c-0.1,0.1-0.2,0.2-0.4,0.2c-0.2,0-0.4,0.3-0.4,0.5l-0.1,4.5c-0.2,0.1-0.3,0.4-0.2,0.6v0.7h-0.3c-0.3,0-0.5,0.2-0.5,0.5v103.8
		c0,0.1,0.1,0.2,0.1,0.3v4.7c0,0.3,0.2,0.5,0.4,0.5c0.4,0,0.6,0.3,0.6,0.7v9c0,0.1,0.1,0.3,0.2,0.4v2.8h0.1v4.3h59.7V44.8H143z
		 M137.5,135.8v4.6c-0.6,0.2-1.1,0.8-1.1,1.5v8.6h-0.1c-0.3,0-0.5,0.2-0.5,0.5v2.2h-13.1H5.2V50.1h117.5h14.9l0,85.3
		C137.5,135.5,137.5,135.7,137.5,135.8z M143.1,140.4v-4.6c0-0.1,0-0.3-0.1-0.3V50.1h14.6h40.3v103.1h-40.3h-13.1V151
		c0-0.1-0.1-0.3-0.2-0.4V142C144.2,141.3,143.8,140.7,143.1,140.4z"/>
	<path class="st1" d="M36.9,65.2c-11,0-16.6,6.5-16.6,17.8v37.3c0,11.3,5.7,17.8,16.6,17.8s16.6-6.5,16.6-17.8V97.1H37.5v10.1H43
		v13.9c0,5.1-2.2,6.9-5.8,6.9c-3.5,0-5.8-1.8-5.8-6.9V82.3c0-5.1,2.2-7,5.8-7c3.6,0,5.8,1.9,5.8,7v6.8h10.5V83
		C53.6,71.6,47.9,65.2,36.9,65.2z"/>
	<rect x="60.7" y="66.2" class="st1" width="11.2" height="71"/>
	<path class="st1" d="M96,65.2c-11,0-16.6,6.5-16.6,17.8v37.3c0,11.3,5.7,17.8,16.6,17.8s16.6-6.5,16.6-17.8V97.1H96.5v10.1h5.6
		v13.9c0,5.1-2.2,6.9-5.8,6.9s-5.8-1.8-5.8-6.9V82.3c0-5.1,2.2-7,5.8-7s5.8,1.9,5.8,7v6.8h10.6V83C112.7,71.6,107,65.2,96,65.2z"/>
	<path class="st1" d="M163.7,137.6h12.2V76.8h11.6V65.7h-35.5v11.1h11.6V137.6z M153.1,75.8v-9.1h33.5v9.1h-11.6v60.8h-10.2l0-60.8
		H153.1z"/>
</g>
</svg>
